{"title":"Asian School Girls 2014 UNRATED HDRIP X264 AC3 TiTAN","uid":10092195,"size":1028969493,"categoryP":"video","categoryS":"hd___movies","magnet":"?xt=urn:btih:7737a19c4d1d998488703e0f7144c04097107aab&amp;dn=Asian+School+Girls+2014+UNRATED+HDRIP+X264+AC3+TiTAN&amp;tr=udp%3A%2F%2Ftracker.openbittorrent.com%3A80&amp;tr=udp%3A%2F%2Fopen.demonii.com%3A1337&amp;tr=udp%3A%2F%2Ftracker.coppersurfer.tk%3A6969&amp;tr=udp%3A%2F%2Fexodus.desync.com%3A6969","seeders":7,"leechers":2,"uploader":"TeamXDN","files":3,"time":1399222866,"description":"Asian School Girls 2014 UNRATED HDRIP X264 AC3 TiTAN\n &lt;a href=&quot;\nhttp://imghost.glotorrents.com/images/45671061495182436131.jpg&quot; rel=&quot;nofollow&quot; target=&quot;_NEW&quot;&gt;\nhttp://imghost.glotorrents.com/images/45671061495182436131.jpg&lt;/a&gt;\n\nKidnapped by a Los Angeles crime syndicate, a group of schoolgirls must fight and seduce their way to vengeance, teaching the criminals a lesson in kicking butt and taking names.\n &lt;a href=&quot;\nhttp://www.imdb.com/title/tt3421270/&quot; rel=&quot;nofollow&quot; target=&quot;_NEW&quot;&gt;\nhttp://www.imdb.com/title/tt3421270/&lt;/a&gt;\n\nSource:  Itunes\n\nGeneral\n\nFormat                                   : Matroska\nFormat version                           : Version 2\nFile size                                : 981 MiB\nDuration                                 : 1h 30mn\nOverall bit rate mode                    : Variable\nOverall bit rate                         : 1 513 Kbps\nEncoded date                             : UTC 2014-04-30 03:57:25\nWriting application                      : mkvmerge v6.9.1 ('Blue Panther') 32bit built on Apr 18 2014 18:15:44\nWriting library                          : libebml v1.3.0 + libmatroska v1.4.1\n\nVideo\nID                                       : 1\nFormat                                   : AVC\nFormat/Info                              : Advanced Video Codec\nFormat profile                           : &lt;a class=&quot;__cf_email__&quot; href=&quot;/cdn-cgi/l/email-protection&quot; data-cfemail=&quot;662e0f010e262a524857&quot;&gt;[email&amp;#160;protected]&lt;/a&gt;&lt;script cf-hash='f9e31' type=&quot;text/javascript&quot;&gt;\n/* &lt;![CDATA[ */!function(){try{var t=&quot;currentScript&quot;in document?document.currentScript:function(){for(var t=document.getElementsByTagName(&quot;script&quot;),e=t.length;e--;)if(t[e].getAttribute(&quot;cf-hash&quot;))return t[e]}();if(t&amp;&amp;t.previousSibling){var e,r,n,i,c=t.previousSibling,a=c.getAttribute(&quot;data-cfemail&quot;);if(a){for(e=&quot;&quot;,r=parseInt(a.substr(0,2),16),n=2;a.length-n;n+=2)i=parseInt(a.substr(n,2),16)^r,e+=String.fromCharCode(i);e=document.createTextNode(e),c.parentNode.replaceChild(e,c)}}}catch(u){}}();/* ]]&gt; */&lt;/script&gt;\nFormat settings, CABAC                   : Yes\nFormat settings, ReFrames                : 3 frames\nCodec ID                                 : V_MPEG4/ISO/AVC\nDuration                                 : 1h 30mn\nBit rate mode                            : Variable\nBit rate                                 : 1 099 Kbps\nMaximum bit rate                         : 40.0 Mbps\nWidth                                    : 720 pixels\nHeight                                   : 400 pixels\nDisplay aspect ratio                     : 16:9\nFrame rate mode                          : Constant\nFrame rate                               : 23.976 fps\nColor space                              : YUV\nChroma subsampling                       : 4:2:0\nBit depth                                : 8 bits\nScan type                                : Progressive\nBits/(Pixel*Frame)                       : 0.159\nStream size                              : 713 MiB (73%)\nWriting library                          : x264 core 142 r2409 d6b4e63\nDefault                                  : Yes\nForced                                   : No\nColor primaries                          : BT.709\nTransfer characteristics                 : BT.709\nMatrix coefficients                      : BT.709\n\nAudio\nID                                       : 2\nFormat                                   : AC-3\nFormat/Info                              : Audio Coding 3\nMode extension                           : CM (complete main)\nFormat settings, Endianness              : Big\nCodec ID                                 : A_AC3\nDuration                                 : 1h 30mn\nBit rate mode                            : Constant\nBit rate                                 : 384 Kbps\nChannel(s)                               : 6 channels\nChannel positions                        : Front: L C R, Side: L R, LFE\nSampling rate                            : 48.0 KHz\nBit depth                                : 16 bits\nCompression mode                         : Lossy\nStream size                              : 249 MiB (25%)\nLanguage                                 : English\nDefault                                  : Yes\nForced                                   : No\n &lt;a href=&quot;\nhttp://imghost.glotorrents.com/images/06755467696186447525.png&quot; rel=&quot;nofollow&quot; target=&quot;_NEW&quot;&gt;\nhttp://imghost.glotorrents.com/images/06755467696186447525.png&lt;/a&gt; &lt;a href=&quot;\nhttp://imghost.glotorrents.com/images/48663979159792652185.png&quot; rel=&quot;nofollow&quot; target=&quot;_NEW&quot;&gt;\nhttp://imghost.glotorrents.com/images/48663979159792652185.png&lt;/a&gt; &lt;a href=&quot;\nhttp://imghost.glotorrents.com/images/50996711307006819054.png&quot; rel=&quot;nofollow&quot; target=&quot;_NEW&quot;&gt;\nhttp://imghost.glotorrents.com/images/50996711307006819054.png&lt;/a&gt; &lt;a href=&quot;\nhttp://imghost.glotorrents.com/images/87687665371797935033.png&quot; rel=&quot;nofollow&quot; target=&quot;_NEW&quot;&gt;\nhttp://imghost.glotorrents.com/images/87687665371797935033.png&lt;/a&gt; &lt;a href=&quot;\nhttp://imghost.glotorrents.com/images/78490987260926797170.png&quot; rel=&quot;nofollow&quot; target=&quot;_NEW&quot;&gt;\nhttp://imghost.glotorrents.com/images/78490987260926797170.png&lt;/a&gt;","torrent":{"xt":"urn:btih:7737a19c4d1d998488703e0f7144c04097107aab","amp;dn":"Asian+School+Girls+2014+UNRATED+HDRIP+X264+AC3+TiTAN","amp;tr":["udp%3A%2F%2Ftracker.openbittorrent.com%3A80","udp%3A%2F%2Fopen.demonii.com%3A1337","udp%3A%2F%2Ftracker.coppersurfer.tk%3A6969","udp%3A%2F%2Fexodus.desync.com%3A6969"],"infoHash":"7737a19c4d1d998488703e0f7144c04097107aab","infoHashBuffer":{"type":"Buffer","data":[119,55,161,156,77,29,153,132,136,112,62,15,113,68,192,64,151,16,122,171]},"announce":[],"urlList":[]}}